<svg aria-hidden="true" style="width:0;height:0;position:absolute;overflow:hidden" xmlns="http://www.w3.org/2000/svg"><defs><symbol id="icon-time_small" viewBox="0 0 32 32"><path d="M16.001 0C7.172 0 0 2.276 0 5.078c0 1.529 2.182 2.909 5.557 3.84-1.172-.608-1.853-1.312-1.853-2.081 0-2.194 5.503-3.998 12.297-3.998s12.335 1.803 12.335 3.998c0 .765-.693 1.475-1.853 2.081C29.838 7.987 32 6.602 32 5.078 32 2.277 24.83 0 16.001 0zM8.719 5.487v2.055h14.558V5.487H8.719zm.294 3.332v14.347h1.258V8.819H9.013zm2.634 0c.047 4.222 1.705 6.586 3.555 7.09-1.874.511-3.552 2.93-3.557 7.257h8.628c-.004-4.327-1.68-6.746-3.553-7.257 1.849-.504 3.503-2.868 3.551-7.09h-8.624zm9.958 0v14.347h1.258V8.819h-1.258zM5.557 23.083C2.181 24.014 0 25.393 0 26.923c0 2.801 7.172 5.078 16.001 5.078S32 29.725 32 26.924c0-1.524-2.162-2.909-5.517-3.84 1.16.606 1.853 1.314 1.853 2.079 0 2.194-5.541 4-12.335 4s-12.297-1.806-12.297-4c0-.769.681-1.47 1.853-2.079zm3.162 1.359v2.053h14.558v-2.053H8.719z"/></symbol><symbol id="icon-location_small" viewBox="0 0 24 32"><path d="M11.84 0C5.301 0 0 5.401 0 12.063c0 2.228.428 4.529 1.656 6.187L11.84 32l10.184-13.75c1.116-1.506 1.656-4.169 1.656-6.187C23.68 5.401 18.379 0 11.84 0zm0 6.986c2.751 0 4.983 2.273 4.983 5.076s-2.231 5.076-4.983 5.076c-2.751 0-4.983-2.273-4.983-5.076s2.231-5.076 4.983-5.076z"/></symbol><symbol id="icon-hero" viewBox="0 0 35 32"><path fill="#fff" style="fill:var(--color1,#fff)" d="M15.535 10.92c0 1.216.986 2.186 2.194 2.186a2.187 2.187 0 1 0 0-4.372 2.195 2.195 0 0 0-2.194 2.186z"/><path fill="#c59b3d" style="fill:var(--color2,#c59b3d)" d="m19.595 6.653 1.924-3.32L19.595.001h-3.719l-1.924 3.332 1.924 3.32h3.719zM28.758 13.071V9.224l-3.332-1.917-3.344 1.917v3.847l3.344 1.917 3.332-1.917zM13.388 13.071V9.224l-3.344-1.917-3.332 1.917v3.847l3.332 1.917 3.344-1.917zM19.665 22.343l1.924-3.32-1.924-3.332h-3.86l-1.924 3.332 1.924 3.32h3.86z"/><path fill="#c59b3d" style="fill:var(--color2,#c59b3d)" d="M35.435 9.248h-3.332v5.764l-3.332 1.906v3.005l-.012-.012v.83l-3.332 1.917v2.654H10.045v-2.654l-3.332-1.917v-.83l-.012.012v-3.005l-3.332-1.906V9.248H.037l-.035.012.012 14.72 2.194 1.333v6.688h31.058v-6.688l2.182-1.333.023-14.72-.035-.012z"/></symbol><symbol id="icon-phone_small" viewBox="0 0 32 32"><path d="M29.994 32C12.932 32.024-.018 18.92 0 2.006 0 .9.896 0 2 0h5.28c.99 0 1.832.728 1.978 1.708a24.834 24.834 0 0 0 2.03 6.794l.206.444a1.416 1.416 0 0 1-.46 1.744c-1.636 1.168-2.26 3.518-.986 5.35a23.665 23.665 0 0 0 5.912 5.914c1.834 1.272 4.184.648 5.35-.986a1.412 1.412 0 0 1 1.746-.462l.442.204a24.77 24.77 0 0 0 6.794 2.032c.98.146 1.708.988 1.708 1.98V30a2.013 2.013 0 0 1-.586 1.415 1.99 1.99 0 0 1-1.416.585h-.004z"/></symbol><symbol id="icon-Vector-2" viewBox="0 0 34 32"><path d="M31.812 32C13.716 32.024-.019 18.92 0 2.006 0 .9.95 0 2.121 0h5.6c1.05 0 1.943.728 2.098 1.708a23.77 23.77 0 0 0 2.153 6.794l.218.444c.147.299.178.636.089.955s-.293.597-.577.789c-1.735 1.168-2.397 3.518-1.046 5.35a24.44 24.44 0 0 0 6.27 5.914c1.945 1.272 4.438.648 5.674-.986.203-.268.499-.462.838-.546s.697-.055 1.014.084l.469.204c2.287 1 4.713 1.684 7.206 2.032 1.039.146 1.812.988 1.812 1.98V30c0 .263-.055.523-.162.766s-.263.463-.46.649-.431.333-.689.433-.534.152-.812.152h-.004z"/></symbol><symbol id="icon-Group-29" viewBox="0 0 51 32"><path fill="#c59b3d" style="fill:var(--color1,#c59b3d)" d="M0 0h50.526v5.053H0V0zM8.421 13.474h42.105v5.053H8.421v-5.053zM0 26.947h50.526V32H0v-5.053z"/></symbol></defs></svg>