<svg width="56" height="56" viewBox="0 0 56 56" fill="none" xmlns="http://www.w3.org/2000/svg">
<g filter="url(#filter0_di_850_51)">
<circle cx="28" cy="24" r="24" transform="rotate(-180 28 24)" fill="black"/>
</g>
<path d="M22.7018 36.051C22.2865 35.2599 22.4462 34.2893 23.0933 33.6731L31.7293 25.4483C32.5569 24.6601 32.5569 23.3399 31.7293 22.5517L23.0933 14.3269C22.4462 13.7107 22.2865 12.7401 22.7018 11.949L23.0185 11.3458C23.6358 10.1699 25.2068 9.91123 26.1686 10.8272L38.4793 22.5517C39.3069 23.3399 39.3069 24.6601 38.4793 25.4483L26.1686 37.1728C25.2068 38.0888 23.6358 37.8301 23.0184 36.6542L22.7018 36.051Z" fill="url(#paint0_linear_850_51)"/>
<defs>
<filter id="filter0_di_850_51" x="0" y="0" width="56" height="56" filterUnits="userSpaceOnUse" color-interpolation-filters="sRGB">
<feFlood flood-opacity="0" result="BackgroundImageFix"/>
<feColorMatrix in="SourceAlpha" type="matrix" values="0 0 0 0 0 0 0 0 0 0 0 0 0 0 0 0 0 0 127 0" result="hardAlpha"/>
<feOffset dy="4"/>
<feGaussianBlur stdDeviation="2"/>
<feComposite in2="hardAlpha" operator="out"/>
<feColorMatrix type="matrix" values="0 0 0 0 1 0 0 0 0 1 0 0 0 0 1 0 0 0 0.25 0"/>
<feBlend mode="normal" in2="BackgroundImageFix" result="effect1_dropShadow_850_51"/>
<feBlend mode="normal" in="SourceGraphic" in2="effect1_dropShadow_850_51" result="shape"/>
<feColorMatrix in="SourceAlpha" type="matrix" values="0 0 0 0 0 0 0 0 0 0 0 0 0 0 0 0 0 0 127 0" result="hardAlpha"/>
<feOffset dy="2"/>
<feGaussianBlur stdDeviation="2"/>
<feComposite in2="hardAlpha" operator="arithmetic" k2="-1" k3="1"/>
<feColorMatrix type="matrix" values="0 0 0 0 1 0 0 0 0 1 0 0 0 0 1 0 0 0 0.25 0"/>
<feBlend mode="normal" in2="shape" result="effect2_innerShadow_850_51"/>
</filter>
<linearGradient id="paint0_linear_850_51" x1="40" y1="24" x2="20.875" y2="24" gradientUnits="userSpaceOnUse">
<stop stop-color="#C59B3D"/>
<stop offset="1" stop-color="white"/>
</linearGradient>
</defs>
</svg>
