<svg aria-hidden="true" style="position: absolute; width: 0; height: 0; overflow: hidden;" version="1.1" xmlns="http://www.w3.org/2000/svg" xmlns:xlink="http://www.w3.org/1999/xlink">
<defs>
<symbol id="icon-time_small" viewBox="0 0 32 32">
<path d="M16.001 0c-8.829 0-16.001 2.276-16.001 5.078 0 1.529 2.182 2.909 5.557 3.84-1.172-0.608-1.853-1.312-1.853-2.081 0-2.194 5.503-3.998 12.297-3.998s12.335 1.803 12.335 3.998c0 0.765-0.693 1.475-1.853 2.081 3.355-0.931 5.517-2.316 5.517-3.84 0-2.801-7.17-5.078-15.999-5.078zM8.719 5.487v2.055h14.558v-2.055h-14.558zM9.013 8.819v14.347h1.258v-14.347l-1.258-0zM11.647 8.819c0.047 4.222 1.705 6.586 3.555 7.090-1.874 0.511-3.552 2.93-3.557 7.257h8.628c-0.004-4.327-1.68-6.746-3.553-7.257 1.849-0.504 3.503-2.868 3.551-7.090l-8.624-0zM21.605 8.819v14.347h1.258v-14.347l-1.258-0zM5.557 23.083c-3.376 0.931-5.557 2.31-5.557 3.84 0 2.801 7.172 5.078 16.001 5.078s15.999-2.276 15.999-5.077c0-1.524-2.162-2.909-5.517-3.84 1.16 0.606 1.853 1.314 1.853 2.079 0 2.194-5.541 4-12.335 4s-12.297-1.806-12.297-4c0-0.769 0.681-1.47 1.853-2.079v0zM8.719 24.442v2.053h14.558v-2.053h-14.558z"></path>
</symbol>
<symbol id="icon-location_small" viewBox="0 0 24 32">
<path d="M11.84 0c-6.539 0-11.84 5.401-11.84 12.063 0 2.228 0.428 4.529 1.656 6.187l10.184 13.75 10.184-13.75c1.116-1.506 1.656-4.169 1.656-6.187 0-6.662-5.301-12.063-11.84-12.063zM11.84 6.986c2.751 0 4.983 2.273 4.983 5.076s-2.231 5.076-4.983 5.076c-2.751 0-4.983-2.273-4.983-5.076s2.231-5.076 4.983-5.076z"></path>
</symbol>
<symbol id="icon-hero" viewBox="0 0 35 32">
<path fill="#fff" style="fill: var(--color1, #fff)" d="M15.535 10.92c0 1.216 0.986 2.186 2.194 2.186 1.22 0 2.194-0.982 2.194-2.186 0-1.216-0.986-2.186-2.194-2.186s-2.194 0.982-2.194 2.186z"></path>
<path fill="#c59b3d" style="fill: var(--color2, #c59b3d)" d="M19.595 6.653l1.924-3.32-1.924-3.332h-3.719l-1.924 3.332 1.924 3.32h3.719z"></path>
<path fill="#c59b3d" style="fill: var(--color2, #c59b3d)" d="M28.758 13.071v-3.847l-3.332-1.917-3.344 1.917v3.847l3.344 1.917 3.332-1.917z"></path>
<path fill="#c59b3d" style="fill: var(--color2, #c59b3d)" d="M13.388 13.071v-3.847l-3.344-1.917-3.332 1.917v3.847l3.332 1.917 3.344-1.917z"></path>
<path fill="#c59b3d" style="fill: var(--color2, #c59b3d)" d="M19.665 22.343l1.924-3.32-1.924-3.332h-3.86l-1.924 3.332 1.924 3.32h3.86z"></path>
<path fill="#c59b3d" style="fill: var(--color2, #c59b3d)" d="M35.435 9.248h-3.332v5.764l-3.332 1.906v3.005l-0.012-0.012v0.83l-3.332 1.917v2.654h-15.382v-2.654l-3.332-1.917v-0.83l-0.012 0.012v-3.005l-3.332-1.906v-5.764h-3.332l-0.035 0.012 0.012 14.72 2.194 1.333v6.688h31.058v-6.688l2.182-1.333 0.023-14.72-0.035-0.012z"></path>
</symbol>
<symbol id="icon-phone_small" viewBox="0 0 32 32">
<path d="M29.994 32c-17.062 0.024-30.012-13.080-29.994-29.994 0-1.106 0.896-2.006 2-2.006h5.28c0.99 0 1.832 0.728 1.978 1.708 0.348 2.35 1.032 4.638 2.030 6.794l0.206 0.444c0.138 0.299 0.168 0.636 0.084 0.955s-0.276 0.597-0.544 0.789c-1.636 1.168-2.26 3.518-0.986 5.35 1.604 2.307 3.606 4.309 5.912 5.914 1.834 1.272 4.184 0.648 5.35-0.986 0.192-0.269 0.471-0.462 0.79-0.546s0.657-0.055 0.956 0.084l0.442 0.204c2.156 1 4.444 1.684 6.794 2.032 0.98 0.146 1.708 0.988 1.708 1.98v5.278c0 0.263-0.052 0.523-0.152 0.766s-0.248 0.463-0.434 0.649-0.407 0.333-0.65 0.433c-0.243 0.1-0.503 0.152-0.766 0.152h-0.004z"></path>
</symbol>
<symbol id="icon-Vector-2" viewBox="0 0 34 32">
<path d="M31.812 32c-18.096 0.024-31.831-13.080-31.812-29.994 0-1.106 0.95-2.006 2.121-2.006h5.6c1.050 0 1.943 0.728 2.098 1.708 0.369 2.35 1.094 4.638 2.153 6.794l0.218 0.444c0.147 0.299 0.178 0.636 0.089 0.955s-0.293 0.597-0.577 0.789c-1.735 1.168-2.397 3.518-1.046 5.35 1.701 2.307 3.825 4.309 6.27 5.914 1.945 1.272 4.438 0.648 5.674-0.986 0.203-0.268 0.499-0.462 0.838-0.546s0.697-0.055 1.014 0.084l0.469 0.204c2.287 1 4.713 1.684 7.206 2.032 1.039 0.146 1.812 0.988 1.812 1.98v5.278c0 0.263-0.055 0.523-0.162 0.766s-0.263 0.463-0.46 0.649c-0.197 0.186-0.431 0.333-0.689 0.433s-0.534 0.152-0.812 0.152h-0.004z"></path>
</symbol>
<symbol id="icon-Group-29" viewBox="0 0 51 32">
<path fill="#c59b3d" style="fill: var(--color1, #c59b3d)" d="M0 0h50.526v5.053h-50.526v-5.053z"></path>
<path fill="#c59b3d" style="fill: var(--color1, #c59b3d)" d="M8.421 13.474h42.105v5.053h-42.105v-5.053z"></path>
<path fill="#c59b3d" style="fill: var(--color1, #c59b3d)" d="M0 26.947h50.526v5.053h-50.526v-5.053z"></path>
</symbol>
</defs>

</svg>
